<?xml version="1.0" encoding="UTF-8"?>
<svg id="Réteg_2" data-name="Réteg 2" xmlns="http://www.w3.org/2000/svg" viewBox="0 0 155.22 155.22">
  <defs>
    <style>
      .cls-1, .cls-2 {
        fill: #894303;
      }

      .cls-2 {
        stroke: #894303;
      }

      .cls-2, .cls-3 {
        stroke-miterlimit: 10;
        stroke-width: 2px;
      }

      .cls-3 {
        fill: #fff;
        stroke: #fff;
      }

      .cls-4 {
        fill: #ffca7f;
      }
    </style>
  </defs>
  <g id="Réteg_1" data-name="Réteg 1">
    <g>
      <path class="cls-4" d="M77.61,153.72C35.64,153.72,1.5,119.58,1.5,77.61S35.64,1.5,77.61,1.5c2.98,0,5.93.17,8.83.5-6.45,5-10.33,12.76-10.33,21.07,0,14.71,11.97,26.68,26.69,26.68,3.57,0,7.02-.69,10.27-2.06,3.38,2.33,7.32,3.55,11.45,3.55,8.27,0,15.53-4.94,18.63-12.34,6.92,11.69,10.57,25.01,10.57,38.7,0,41.97-34.14,76.11-76.11,76.11Z"/>
      <path class="cls-1" d="M77.61,3c1.76,0,3.5.06,5.24.18-5.2,5.21-8.24,12.34-8.24,19.9,0,15.54,12.65,28.18,28.19,28.18,3.5,0,6.89-.63,10.1-1.87,3.47,2.21,7.45,3.36,11.62,3.36,7.88,0,14.9-4.17,18.71-10.66,5.89,10.86,8.99,23.03,8.99,35.52,0,41.14-33.47,74.61-74.61,74.61S3,118.75,3,77.61,36.47,3,77.61,3M77.61,0C34.75,0,0,34.75,0,77.61s34.75,77.61,77.61,77.61,77.61-34.75,77.61-77.61c0-15.57-4.59-30.08-12.49-42.23-1.96,8.24-9.36,14.37-18.21,14.37-4.23,0-8.13-1.4-11.27-3.77-3.19,1.47-6.72,2.28-10.45,2.28-13.91,0-25.19-11.27-25.19-25.18,0-9.47,5.22-17.71,12.95-22-4.21-.72-8.53-1.08-12.95-1.08h0Z"/>
    </g>
    <circle class="cls-2" cx="45.18" cy="27.04" r="7.12"/>
    <circle class="cls-2" cx="11.24" cy="79.04" r="7.12"/>
    <circle class="cls-2" cx="138.1" cy="100.32" r="7.12"/>
    <circle class="cls-2" cx="46.26" cy="116.31" r="7.12"/>
    <circle class="cls-2" cx="97.45" cy="62.9" r="7.12"/>
    <circle class="cls-2" cx="97.45" cy="138.45" r="7.12"/>
    <path class="cls-3" d="M136.43,114.54c-.32-.53-.77-.81-1.34-.81-.65-.01-1.25.29-1.79.89-1.91,2.26-3.62,3.84-5.12,4.76-1.5.92-3.16,1.37-4.94,1.34-2.06-.02-3.65-1.01-4.76-2.95-1.11-1.94-1.63-5.21-1.57-9.8.03-1.89.12-3.71.28-5.45,11.13-4.04,16.78-11.5,16.93-22.36.03-2.8-.57-5.08-1.82-6.82-1.25-1.75-2.96-2.63-5.15-2.67-2.98-.04-5.69,1.23-8.13,3.82-2.45,2.59-4.51,5.98-6.19,10.16-1.67,4.19-2.94,8.68-3.8,13.48-1.97.28-4.34.47-7.1.56l-6.44.23c1.13-6.2,1.74-11.12,1.79-14.76.05-4.12-.68-7.15-2.21-9.12-1.53-1.97-3.72-2.98-6.57-3.01-3.01-.05-6,.78-8.97,2.46-2.95,1.7-5.41,3.86-7.37,6.51-.11.15-.21.3-.32.45-.86.84-1.67,1.49-2.43,1.97-1.49.94-3.14,1.41-4.93,1.41-2.05,0-3.66-.96-4.79-2.89-1.14-1.92-1.71-5.19-1.71-9.78,0-1.88.06-3.7.19-5.45,11.08-4.2,16.62-11.72,16.62-22.59,0-2.8-.63-5.07-1.9-6.79-1.28-1.74-3-2.59-5.19-2.59-2.98,0-5.68,1.31-8.08,3.94-2.41,2.62-4.43,6.04-6.05,10.24-1.62,4.2-2.83,8.71-3.62,13.52-1.97.32-4.33.53-7.09.66l-6.44.33c1.05-6.22,1.58-11.14,1.58-14.78,0-4.12-.78-7.15-2.34-9.1-1.55-1.94-3.75-2.92-6.6-2.92-3.02,0-5.99.87-8.93,2.59-2.94,1.74-5.37,3.93-7.29,6.6-1.09,1.54-1.64,2.98-1.64,4.34,0,.88.21,1.59.65,2.17s.97.86,1.58.86c.69,0,1.33-.38,1.9-1.12,3.85-5.12,7.31-7.68,10.38-7.68,1.01,0,1.82.37,2.43,1.11.61.75.92,2.14.92,4.21,0,3.24-.57,7.95-1.71,14.12l-3.48.12c-1.93.09-3.31.48-4.14,1.15-.84.67-1.25,1.74-1.25,3.19,0,1.13.33,1.96.98,2.46.66.5,1.71.76,3.16.76l3.16-.13c-.88,4.16-2.06,9.24-3.55,15.24-.21,1.01-.33,1.8-.33,2.37,0,2.53,1.4,3.81,4.21,3.81,2.58,0,4.33-1.91,5.25-5.72,1.58-6.47,2.81-11.95,3.68-16.42.84-.04,2.39-.15,4.67-.33,3.41-.27,6.57-.65,9.46-1.18-.13,1.49-.19,2.98-.19,4.47,0,6.13,1.27,10.84,3.81,14.11,2.53,3.29,5.93,4.93,10.18,4.93,4.9,0,9.52-2.66,13.85-7.95.13-.16.26-.33.37-.51,2.87-3,5.49-4.49,7.85-4.46,1,.01,1.81.4,2.41,1.14.6.76.89,2.17.87,4.22-.05,3.24-.68,7.94-1.91,14.09l-3.48.08c-1.93.06-3.31.43-4.16,1.09-.84.67-1.27,1.73-1.29,3.17-.02,1.14.3,1.97.95,2.48.65.51,1.7.78,3.15.8l3.16-.08c-.94,4.15-2.2,9.2-3.76,15.19-.23,1-.36,1.79-.37,2.36-.03,2.53,1.35,3.82,4.16,3.86,2.57.04,4.35-1.84,5.33-5.64,1.66-6.45,2.96-11.91,3.9-16.37.84-.03,2.39-.11,4.67-.26,3.42-.21,6.58-.57,9.48-1.05-.15,1.48-.25,2.97-.27,4.46-.08,6.13,1.12,10.85,3.62,14.16,2.49,3.32,5.86,5.01,10.11,5.08,4.9.06,9.56-2.52,13.97-7.75.84-1,1.28-2.35,1.3-4.05.02-.93-.13-1.65-.46-2.18ZM120.51,86.06c1-3,2.05-5.37,3.15-7.11,1.1-1.74,2.13-2.6,3.09-2.58.53,0,.96.3,1.31.87.34.57.5,1.37.49,2.37-.06,4.21-.94,7.63-2.65,10.27-1.7,2.66-4.31,4.67-7.83,6.07.62-3.57,1.43-6.87,2.44-9.89ZM61.28,50.22c.97-3.01,1.98-5.4,3.05-7.16,1.07-1.75,2.09-2.62,3.05-2.62.53,0,.97.29,1.32.86.35.57.52,1.36.52,2.36,0,4.21-.83,7.64-2.49,10.31-1.66,2.67-4.25,4.73-7.75,6.17.57-3.58,1.34-6.89,2.3-9.92Z"/>
  </g>
</svg>