<?xml version="1.0" encoding="UTF-8"?>
<svg id="Réteg_1" data-name="Réteg 1" xmlns="http://www.w3.org/2000/svg" viewBox="0 0 160 160">
  <defs>
    <style>
      .cls-1, .cls-2 {
        fill: #894303;
      }

      .cls-3 {
        fill: #fff;
        font-family: Pacifico-Regular, Pacifico;
        font-size: 64.31px;
      }

      .cls-2 {
        stroke: #894303;
        stroke-miterlimit: 10;
        stroke-width: 2px;
      }

      .cls-4 {
        fill: #ffca7f;
      }
    </style>
  </defs>
  <g>
    <path class="cls-4" d="M80,156.11C38.03,156.11,3.89,121.97,3.89,80S38.03,3.89,80,3.89c2.97,0,5.92.17,8.83.51-6.45,5-10.33,12.76-10.33,21.07,0,14.72,11.97,26.69,26.69,26.69,3.57,0,7.02-.69,10.27-2.06,3.38,2.33,7.32,3.55,11.46,3.55,8.27,0,15.53-4.94,18.63-12.35,6.92,11.69,10.56,25.01,10.56,38.7,0,41.97-34.14,76.11-76.11,76.11Z"/>
    <path class="cls-1" d="M80,5.39c1.75,0,3.5.06,5.23.18-5.2,5.21-8.23,12.33-8.23,19.9,0,15.54,12.64,28.19,28.19,28.19,3.5,0,6.89-.63,10.1-1.88,3.47,2.21,7.46,3.37,11.62,3.37,7.88,0,14.9-4.17,18.71-10.66,5.89,10.86,8.98,23.03,8.98,35.52,0,41.14-33.47,74.61-74.61,74.61S5.39,121.14,5.39,80,38.86,5.39,80,5.39M80,2.39C37.14,2.39,2.39,37.14,2.39,80s34.75,77.61,77.61,77.61,77.61-34.75,77.61-77.61c0-15.57-4.59-30.08-12.49-42.23-1.96,8.24-9.37,14.37-18.21,14.37-4.23,0-8.14-1.4-11.28-3.77-3.18,1.47-6.72,2.28-10.45,2.28-13.91,0-25.19-11.28-25.19-25.19,0-9.46,5.22-17.71,12.95-21.99-4.21-.72-8.53-1.08-12.95-1.08h0Z"/>
  </g>
  <circle class="cls-2" cx="54.69" cy="26.24" r="7.12"/>
  <circle class="cls-2" cx="15.4" cy="85.23" r="7.12"/>
  <circle class="cls-2" cx="140.49" cy="101.43" r="7.12"/>
  <circle class="cls-2" cx="49.57" cy="115.67" r="7.12"/>
  <circle class="cls-2" cx="105.11" cy="63.5" r="7.12"/>
  <circle class="cls-2" cx="99.84" cy="138.03" r="7.12"/>
  <text class="cls-3" transform="translate(16.43 94.32)"><tspan x="0" y="0">H</tspan></text>
  <text class="cls-3" transform="translate(76.72 125.45) rotate(.8)"><tspan x="0" y="0">H</tspan></text>
</svg>