<?xml version="1.0" encoding="UTF-8"?>
<svg id="Réteg_2" data-name="Réteg 2" xmlns="http://www.w3.org/2000/svg" viewBox="0 0 155.22 155.22">
  <defs>
    <style>
      .cls-1, .cls-2 {
        fill: #894303;
      }

      .cls-2, .cls-3 {
        stroke: #894303;
        stroke-miterlimit: 10;
        stroke-width: 2px;
      }

      .cls-3 {
        fill: #fff;
      }

      .cls-4 {
        fill: #ffca7f;
      }
    </style>
  </defs>
  <g id="Réteg_1" data-name="Réteg 1">
    <g>
      <path class="cls-4" d="M77.61,153.72C35.64,153.72,1.5,119.58,1.5,77.61S35.64,1.5,77.61,1.5c2.98,0,5.93.17,8.83.5-6.45,5-10.33,12.76-10.33,21.07,0,14.71,11.97,26.68,26.69,26.68,3.57,0,7.02-.69,10.27-2.06,3.38,2.33,7.32,3.55,11.45,3.55,8.27,0,15.53-4.94,18.63-12.34,6.92,11.69,10.57,25.01,10.57,38.7,0,41.97-34.14,76.11-76.11,76.11Z"/>
      <path class="cls-1" d="M77.61,3c1.76,0,3.5.06,5.24.18-5.2,5.21-8.24,12.34-8.24,19.9,0,15.54,12.65,28.18,28.19,28.18,3.5,0,6.89-.63,10.1-1.87,3.47,2.21,7.45,3.36,11.62,3.36,7.88,0,14.9-4.17,18.71-10.66,5.89,10.86,8.99,23.03,8.99,35.52,0,41.14-33.47,74.61-74.61,74.61S3,118.75,3,77.61,36.47,3,77.61,3M77.61,0C34.75,0,0,34.75,0,77.61s34.75,77.61,77.61,77.61,77.61-34.75,77.61-77.61c0-15.57-4.59-30.08-12.49-42.23-1.96,8.24-9.36,14.37-18.21,14.37-4.23,0-8.13-1.4-11.27-3.77-3.19,1.47-6.72,2.28-10.45,2.28-13.91,0-25.19-11.27-25.19-25.18,0-9.47,5.22-17.71,12.95-22-4.21-.72-8.53-1.08-12.95-1.08h0Z"/>
    </g>
    <circle class="cls-2" cx="52.3" cy="23.85" r="7.12"/>
    <circle class="cls-2" cx="13.01" cy="82.84" r="7.12"/>
    <circle class="cls-2" cx="138.1" cy="99.04" r="7.12"/>
    <circle class="cls-2" cx="47.18" cy="113.28" r="7.12"/>
    <circle class="cls-2" cx="102.72" cy="61.11" r="7.12"/>
    <circle class="cls-2" cx="97.45" cy="135.64" r="7.12"/>
    <path class="cls-3" d="M135.6,113.68c-.31-.52-.75-.79-1.31-.79-.64-.01-1.22.28-1.75.87-1.87,2.21-3.54,3.76-5.01,4.66-1.47.9-3.09,1.34-4.84,1.31-2.02-.02-3.57-.99-4.66-2.89-1.09-1.9-1.6-5.1-1.54-9.6.03-1.85.12-3.63.27-5.34,10.9-3.96,16.43-11.26,16.58-21.89.03-2.74-.56-4.97-1.78-6.68-1.22-1.71-2.9-2.58-5.04-2.61-2.92-.04-5.57,1.2-7.96,3.74-2.4,2.54-4.42,5.86-6.06,9.95-1.64,4.1-2.88,8.5-3.72,13.2-1.93.27-4.25.46-6.95.55l-6.31.23c1.11-6.07,1.7-10.89,1.75-14.45.05-4.03-.67-7-2.16-8.93-1.5-1.93-3.64-2.92-6.43-2.95-2.95-.05-5.88.76-8.78,2.41-2.89,1.66-5.3,3.78-7.22,6.37-.11.15-.21.29-.31.44-.84.82-1.64,1.46-2.38,1.93-1.46.92-3.07,1.38-4.83,1.38-2.01,0-3.58-.94-4.69-2.83-1.12-1.88-1.67-5.08-1.67-9.58,0-1.84.06-3.62.19-5.34,10.85-4.11,16.27-11.48,16.27-22.12,0-2.74-.62-4.96-1.86-6.65-1.25-1.7-2.94-2.54-5.08-2.54-2.92,0-5.56,1.28-7.91,3.86-2.36,2.57-4.34,5.91-5.92,10.03-1.59,4.11-2.77,8.53-3.54,13.24-1.93.31-4.24.52-6.94.65l-6.31.32c1.03-6.09,1.55-10.91,1.55-14.47,0-4.03-.76-7-2.29-8.91-1.52-1.9-3.67-2.86-6.46-2.86-2.96,0-5.87.85-8.74,2.54-2.88,1.7-5.26,3.85-7.14,6.46-1.07,1.51-1.61,2.92-1.61,4.25,0,.86.21,1.56.64,2.12s.95.84,1.55.84c.68,0,1.3-.37,1.86-1.1,3.77-5.01,7.16-7.52,10.16-7.52.99,0,1.78.36,2.38,1.09.6.73.9,2.1.9,4.12,0,3.17-.56,7.78-1.67,13.83l-3.41.12c-1.89.09-3.24.47-4.05,1.13-.82.66-1.22,1.7-1.22,3.12,0,1.11.32,1.92.96,2.41.65.49,1.67.74,3.09.74l3.09-.13c-.86,4.07-2.02,9.05-3.48,14.92-.21.99-.32,1.76-.32,2.32,0,2.48,1.37,3.73,4.12,3.73,2.53,0,4.24-1.87,5.14-5.6,1.55-6.34,2.75-11.7,3.6-16.08.82-.04,2.34-.15,4.57-.32,3.34-.26,6.43-.64,9.26-1.16-.13,1.46-.19,2.92-.19,4.38,0,6,1.24,10.61,3.73,13.82,2.48,3.22,5.81,4.83,9.97,4.83,4.8,0,9.32-2.6,13.56-7.78.13-.16.25-.32.36-.5,2.81-2.94,5.38-4.4,7.69-4.37.98.01,1.77.39,2.36,1.12.59.74.87,2.12.85,4.13-.05,3.17-.67,7.77-1.87,13.8l-3.41.08c-1.89.06-3.24.42-4.07,1.07-.82.66-1.24,1.69-1.26,3.1-.02,1.12.29,1.93.93,2.43.64.5,1.66.76,3.08.78l3.09-.08c-.92,4.06-2.15,9.01-3.68,14.87-.23.98-.35,1.75-.36,2.31-.03,2.48,1.32,3.74,4.07,3.78,2.52.04,4.26-1.8,5.22-5.52,1.63-6.32,2.9-11.66,3.82-16.03.82-.03,2.34-.11,4.57-.25,3.35-.21,6.44-.56,9.28-1.03-.15,1.45-.24,2.91-.26,4.37-.08,6,1.1,10.62,3.54,13.87s5.74,4.91,9.9,4.97c4.8.06,9.36-2.47,13.68-7.59.82-.98,1.25-2.3,1.27-3.97.02-.91-.13-1.62-.45-2.13ZM120.01,85.8c.98-2.94,2.01-5.26,3.08-6.96,1.08-1.7,2.09-2.55,3.03-2.53.52,0,.94.29,1.28.85.33.56.49,1.34.48,2.32-.06,4.12-.92,7.47-2.59,10.06-1.66,2.6-4.22,4.57-7.67,5.94.61-3.5,1.4-6.73,2.39-9.68ZM62.01,50.7c.95-2.95,1.94-5.29,2.99-7.01,1.05-1.71,2.05-2.57,2.99-2.57.52,0,.95.28,1.29.84.34.56.51,1.33.51,2.31,0,4.12-.81,7.48-2.44,10.1-1.63,2.61-4.16,4.63-7.59,6.04.56-3.51,1.31-6.75,2.25-9.71Z"/>
  </g>
</svg>